<svg xmlns="http://www.w3.org/2000/svg" width="598" height="98" fill="none"><path fill="#161616" d="M137.09 79.02v-59.5h9.86l20.06 42.16h.09l20.23-42.16h9.86v59.5h-7.74V32.35h-.17l-18.36 38.17h-7.56l-18.44-38.08h-.17v46.58h-7.66M221.41 80.04c-3.46 0-6.33-.59-8.63-1.78-2.29-1.19-3.99-2.78-5.1-4.76-1.1-1.98-1.66-4.14-1.66-6.46 0-2.83.74-5.24 2.21-7.22s3.57-3.5 6.29-4.55 6.01-1.57 9.86-1.57h11.3c0-2.61-.41-4.76-1.23-6.46s-2-2.97-3.53-3.82-3.4-1.28-5.61-1.28c-2.66 0-4.99.67-6.97 2-1.99 1.33-3.2 3.33-3.66 5.99h-7.82q.51-4.59 3.06-7.74c1.7-2.1 3.91-3.71 6.63-4.84s5.64-1.7 8.76-1.7c3.97 0 7.29.72 9.99 2.17 2.69 1.45 4.7 3.44 6.03 5.99s2 5.58 2 9.1v25.93h-6.63l-.59-7.22h-.17a16.2 16.2 0 0 1-2.38 3.36 13.3 13.3 0 0 1-3.23 2.59c-1.19.68-2.52 1.23-4 1.66-1.47.43-3.12.64-4.93.64zm1.45-6.38c2.04 0 3.85-.4 5.44-1.19s2.9-1.87 3.95-3.23 1.87-2.89 2.47-4.59c.59-1.7.89-3.46.89-5.27h-10.54c-2.72 0-4.87.31-6.46.94-1.59.62-2.74 1.47-3.44 2.55-.71 1.08-1.06 2.32-1.06 3.74s.32 2.73.98 3.78c.65 1.05 1.64 1.86 2.97 2.42 1.33.57 2.93.85 4.8.85M252.44 79.02V36.86h6.88l.59 8.5h.17c1.13-2.32 2.41-4.18 3.82-5.57 1.42-1.39 3.09-2.39 5.02-3.02 1.93-.62 4.19-.94 6.8-.94v8.08h-2.04c-2.04 0-3.9.24-5.57.72s-3.1 1.29-4.29 2.42q-1.785 1.695-2.76 4.29c-.65 1.73-.98 3.87-.98 6.42v21.25h-7.65zM282.359 79.02V18.41h7.65v60.61zm26.6 0-20.23-23.21 18.19-18.96h9.35l-21.08 21.76V53l23.55 26.01h-9.78zM339.221 80.04c-4.14 0-7.76-.92-10.88-2.76q-4.68-2.76-7.35-7.74c-1.78-3.31-2.68-7.15-2.68-11.52s.88-8.37 2.63-11.69 4.22-5.89 7.4-7.74c3.17-1.84 6.86-2.76 11.05-2.76s7.61.92 10.58 2.76 5.28 4.27 6.93 7.27c1.64 3 2.47 6.26 2.47 9.78v1.87c0 .68-.03 1.42-.09 2.21h-35.28v-5.69h27.63q-.165-5.61-3.66-8.76c-2.32-2.1-5.24-3.14-8.75-3.14-2.44 0-4.67.52-6.72 1.57-2.04 1.05-3.66 2.61-4.84 4.67-1.19 2.07-1.78 4.66-1.78 7.78v2.38c0 3.29.61 6.05 1.83 8.29s2.86 3.92 4.93 5.06c2.07 1.13 4.26 1.7 6.59 1.7 2.78 0 5.11-.64 7.01-1.91s3.33-3.05 4.29-5.31h7.65c-.79 2.61-2.04 4.95-3.74 7.01-1.7 2.07-3.82 3.7-6.38 4.89s-5.5 1.78-8.84 1.78M382.83 79.02c-2.61 0-4.88-.41-6.8-1.23-1.93-.82-3.4-2.2-4.42-4.12-1.02-1.93-1.53-4.53-1.53-7.82V42.98h-7.4v-6.12h7.4l.85-10.28h6.8v10.28h12.24v6.12h-12.24v22.87c0 2.66.52 4.48 1.57 5.44s2.9 1.44 5.57 1.44h4.42v6.29zM397.28 97.13V36.86H404l.68 7.22h.17c1.02-1.59 2.29-3.02 3.82-4.29a16.7 16.7 0 0 1 5.23-2.93c1.96-.68 4.18-1.02 6.67-1.02 4.08 0 7.66.98 10.75 2.93s5.48 4.59 7.18 7.91c1.7 3.31 2.55 7.1 2.55 11.35s-.85 7.96-2.55 11.31q-2.55 5.01-7.23 7.86t-11.22 2.85c-3.51 0-6.56-.74-9.14-2.21s-4.58-3.37-5.99-5.7v24.99h-7.65zm21.93-23.8c2.78 0 5.23-.64 7.35-1.91 2.13-1.27 3.77-3.07 4.93-5.4 1.16-2.32 1.74-4.99 1.74-7.99s-.58-5.84-1.74-8.16-2.81-4.12-4.93-5.4c-2.13-1.28-4.58-1.91-7.35-1.91s-5.24.64-7.39 1.91c-2.16 1.27-3.83 3.07-5.02 5.4-1.19 2.32-1.78 5.04-1.78 8.16s.59 5.67 1.78 7.99 2.86 4.12 5.02 5.4c2.15 1.28 4.62 1.91 7.39 1.91M449.471 79.02V18.41h7.65v60.61zM481.259 80.04c-3.46 0-6.33-.59-8.63-1.78-2.29-1.19-3.99-2.78-5.1-4.76-1.1-1.98-1.66-4.14-1.66-6.46 0-2.83.74-5.24 2.21-7.22s3.57-3.5 6.29-4.55 6.01-1.57 9.86-1.57h11.3c0-2.61-.41-4.76-1.23-6.46s-2-2.97-3.53-3.82-3.4-1.28-5.61-1.28c-2.66 0-4.99.67-6.97 2-1.99 1.33-3.2 3.33-3.66 5.99h-7.82q.51-4.59 3.06-7.74c1.7-2.1 3.91-3.71 6.63-4.84s5.64-1.7 8.76-1.7c3.97 0 7.29.72 9.99 2.17 2.69 1.45 4.7 3.44 6.03 5.99s2 5.58 2 9.1v25.93h-6.63l-.59-7.22h-.17a16.2 16.2 0 0 1-2.38 3.36 13.3 13.3 0 0 1-3.23 2.59c-1.19.68-2.52 1.23-4 1.66-1.47.43-3.12.64-4.93.64zm1.44-6.38c2.04 0 3.85-.4 5.44-1.19s2.9-1.87 3.95-3.23 1.87-2.89 2.47-4.59c.59-1.7.89-3.46.89-5.27h-10.54c-2.72 0-4.87.31-6.46.94-1.59.62-2.74 1.47-3.44 2.55-.71 1.08-1.06 2.32-1.06 3.74s.32 2.73.98 3.78c.65 1.05 1.64 1.86 2.97 2.42 1.33.57 2.93.85 4.8.85M531.67 80.04c-4.19 0-7.89-.92-11.09-2.76s-5.7-4.42-7.48-7.74c-1.78-3.31-2.68-7.15-2.68-11.52s.92-8.29 2.76-11.6 4.36-5.91 7.56-7.78 6.84-2.81 10.92-2.81c5.1 0 9.36 1.32 12.79 3.95 3.43 2.64 5.59 6.16 6.5 10.58h-7.91c-.57-2.61-1.9-4.62-4-6.04s-4.59-2.13-7.48-2.13c-2.27 0-4.44.57-6.5 1.7-2.07 1.13-3.71 2.88-4.93 5.23s-1.83 5.28-1.83 8.8c0 2.49.35 4.72 1.06 6.67s1.66 3.6 2.85 4.93a11.3 11.3 0 0 0 4.21 2.98c1.62.65 3.33.98 5.14.98 1.93 0 3.68-.31 5.27-.93s2.92-1.53 4-2.72 1.82-2.63 2.21-4.33h7.91c-.91 4.36-3.07 7.88-6.5 10.54s-7.69 3.99-12.79 3.99zM576.971 80.04c-4.14 0-7.76-.92-10.88-2.76q-4.68-2.76-7.35-7.74c-1.78-3.31-2.68-7.15-2.68-11.52s.88-8.37 2.63-11.69c1.75-3.31 4.22-5.89 7.4-7.74 3.17-1.84 6.85-2.76 11.05-2.76s7.61.92 10.58 2.76 5.28 4.27 6.93 7.27c1.64 3 2.47 6.26 2.47 9.78v1.87c0 .68-.03 1.42-.08 2.21H561.76v-5.69h27.631q-.165-5.61-3.66-8.76c-2.32-2.1-5.24-3.14-8.75-3.14-2.44 0-4.681.52-6.721 1.57s-3.659 2.61-4.839 4.67c-1.19 2.07-1.78 4.66-1.78 7.78v2.38c0 3.29.61 6.05 1.83 8.29s2.86 3.92 4.93 5.06c2.07 1.13 4.26 1.7 6.59 1.7 2.78 0 5.11-.64 7.01-1.91s3.33-3.05 4.29-5.31h7.65c-.79 2.61-2.04 4.95-3.74 7.01-1.701 2.07-3.831 3.7-6.381 4.89s-5.499 1.78-8.839 1.78zM81.75 31.469l-6.27 14.08c8.3.14 15.01 6.93 15.01 15.27s-6.86 15.28-15.28 15.28c-4.41 0-8.37-1.89-11.16-4.88l-6.27 14.08a29.93 29.93 0 0 0 17.43 5.59c16.58 0 30.069-13.49 30.069-30.07 0-14.34-10.09-26.35-23.54-29.35zM73.1 0 53.4 44.24 32.99 90.07h16.19L89.28 0zM37.17 58.88 15.74 0H0l29.4 80.77-.89-2.44z"/><path fill="#0AD494" d="m37.17 58.879-8.66 19.45 4.27 11.74h.21l8.55-19.18z"/></svg>